<svg width="30" height="30" viewBox="0 0 30 30" fill="none" xmlns="http://www.w3.org/2000/svg">
<path fill-rule="evenodd" clip-rule="evenodd" d="M26.1024 7.77786C27.68 7.77785 29.102 6.82892 29.7044 5.37412C30.3069 3.91933 29.971 2.24562 28.8536 1.13446C27.7362 0.0232944 26.0576 -0.306148 24.6017 0.299945C23.1457 0.906039 22.1996 2.32812 22.2049 3.90221C22.2122 6.04481 23.9551 7.77787 26.1024 7.77786ZM26.1025 2.22231C27.0323 2.22231 27.7861 2.97443 27.7861 3.9022C27.7861 4.82998 27.0323 5.58209 26.1025 5.58209C25.1726 5.58209 24.4189 4.82998 24.4189 3.9022C24.4189 2.97443 25.1726 2.22231 26.1025 2.22231ZM2.21387 20.9921C2.21387 25.3836 4.63984 27.791 9.02781 27.791C9.63982 27.7981 10.1342 28.2914 10.1414 28.9021C10.1341 29.5106 9.63768 30 9.02781 30C3.46 30 0 26.5476 0 20.9921V10.1852C0 4.61648 3.46 1.16411 9.02781 1.16411H18.7847C19.3946 1.17136 19.8851 1.6667 19.885 2.27522C19.8851 2.5687 19.7673 2.84997 19.5581 3.05625C19.3489 3.26253 19.0656 3.37663 18.7715 3.3731H9.02781C4.63984 3.3731 2.21387 5.79372 2.21387 10.1852V20.9921ZM17.8037 18.1085C17.618 18.3373 17.3532 18.4883 17.0614 18.5318C16.771 18.5613 16.4806 18.4758 16.2527 18.2937L12.1829 15.1059L8.52406 19.8546C8.34959 20.0914 8.08722 20.2486 7.7957 20.2908C7.50417 20.3331 7.20783 20.2569 6.97302 20.0794C6.49383 19.7046 6.40525 19.0152 6.77417 18.5318L11.1091 12.8969C11.2899 12.6633 11.5565 12.5111 11.85 12.4739C12.1435 12.4366 12.4397 12.5175 12.6734 12.6985L16.7432 15.8863L20.3225 11.3229C20.7154 10.9501 21.3219 10.9185 21.7516 11.2483C22.1813 11.5781 22.3062 12.1711 22.0459 12.6456L17.8037 18.1085ZM27.8391 10.1852C27.2314 10.1852 26.7388 10.6767 26.7388 11.2831V20.992C26.699 25.3836 24.273 27.791 19.885 27.791H15.4573C14.8453 27.7981 14.3509 28.2914 14.3438 28.9021C14.351 29.5105 14.8474 30 15.4573 29.9999H19.885C25.4529 29.9999 28.9261 26.5476 28.9261 20.992V11.2831C28.9262 10.6819 28.4416 10.1924 27.8391 10.1852Z" fill="#AC5E1E"/>
</svg>
