<svg width="30" height="35" viewBox="0 0 30 35" fill="yellow" xmlns="http://www.w3.org/2000/svg">
<path d="M29.3872 24.1101C28.5279 23.1813 27.0794 23.1306 26.1582 23.9967L25.886 24.2527L23.2958 22.5466L23.4757 18.5989C23.6087 15.6801 23.4672 14.7485 22.4659 11.953C21.691 9.78957 20.6339 7.0863 19.7846 4.91414C19.1767 3.3595 18.6517 2.01685 18.4833 1.51261C18.4826 1.51042 18.4819 1.5083 18.4811 1.50604C18.0381 0.222943 16.8746 -0.185525 15.9543 0.0743218C15.6043 0.173106 15.2661 0.378126 15.0001 0.679606C14.7341 0.378126 14.396 0.173106 14.0459 0.0743218C13.1255 -0.185389 11.9621 0.222874 11.5191 1.50598C11.5183 1.50816 11.5176 1.51028 11.5169 1.51254C11.382 1.91629 11.0136 2.86934 10.6355 3.83893C10.4986 4.19038 10.6701 4.58716 11.0186 4.72525C11.3674 4.86362 11.7608 4.69039 11.8977 4.33914C12.3407 3.20274 12.664 2.36167 12.8009 1.95239C12.9782 1.44315 13.3699 1.30342 13.6803 1.39099C14.0038 1.48232 14.2947 1.83801 14.1425 2.56259L12.5588 9.42882C12.2196 9.67787 11.8895 10.0902 11.6168 10.7495C10.8315 12.6482 10.1712 14.6733 9.80517 16.3051C9.72257 16.6734 9.95177 17.0394 10.317 17.1227C10.6822 17.206 11.0453 16.975 11.1279 16.6067C11.4775 15.0481 12.1119 13.1051 12.8685 11.2758C13.2231 10.4186 13.5289 10.4465 13.6441 10.4569C14.0121 10.4902 14.2847 10.8216 14.2517 11.1956C14.2207 11.5476 14.0849 12.8303 13.9536 14.0709C13.8156 15.3742 13.6852 16.6052 13.6532 16.9691C13.5742 17.8638 13.7301 18.9495 13.8952 20.0989C14.3738 23.4308 14.9656 27.5532 10.5535 30.3078L5.13539 25.2132L7.77016 23.4777C7.97108 23.3453 8.08764 23.1157 8.07666 22.874L7.87899 18.5362C7.75396 15.7924 7.86706 15.0491 8.80967 12.4175C9.05432 11.7344 9.33891 10.9645 9.67965 10.0638C9.8131 9.71102 9.63761 9.31595 9.28772 9.18141C8.93783 9.04688 8.54603 9.22387 8.41251 9.57655C8.06893 10.4849 7.78162 11.2622 7.53412 11.9531C6.53286 14.7485 6.39134 15.6802 6.52432 18.599L6.70414 22.5467L4.11392 24.2528L3.84181 23.9969C2.92056 23.1306 1.4721 23.1814 0.612761 24.1103C-0.246374 25.0391 -0.195924 26.4994 0.725323 27.3657L8.18739 34.3821C8.62699 34.7955 9.18648 35 9.74488 35C10.3567 35 10.9671 34.7544 11.4164 34.2688C11.8326 33.8189 12.0501 33.2325 12.0289 32.6176C12.0119 32.1279 11.8448 31.6672 11.5521 31.2878C13.2359 30.1739 14.3742 28.7977 14.9999 27.1171C15.6257 28.7978 16.7639 30.1739 18.4476 31.2878C18.155 31.6672 17.9878 32.1279 17.9709 32.6176C17.9497 33.2325 18.1673 33.8189 18.5835 34.2689C19.0328 34.7545 19.643 35 20.2549 35C20.8133 35 21.3729 34.7955 21.8124 34.3821L29.2745 27.3657C30.196 26.4993 30.2464 25.0389 29.3872 24.1101ZM10.4248 33.3361C10.0756 33.7136 9.48687 33.7341 9.11257 33.3821L1.6505 26.3656C1.27613 26.0136 1.25565 25.4201 1.6048 25.0427C1.78734 24.8453 2.03539 24.7455 2.28411 24.7455C2.51099 24.7455 2.73843 24.8286 2.91703 24.9966L10.3791 32.0132C10.5605 32.1837 10.6651 32.4152 10.6737 32.665C10.6823 32.9149 10.594 33.1532 10.4248 33.3361ZM14.0191 9.13431L15.0001 4.88139L15.9811 9.13431C15.6014 9.21833 15.265 9.40927 15.0001 9.67151C14.7353 9.40927 14.3989 9.21833 14.0191 9.13431ZM15.0001 17.1469C15.0169 17.3751 15.0153 17.6241 15.0001 17.8921C14.985 17.6241 14.9834 17.3751 15.0001 17.1469ZM16.1049 20.0988C16.27 18.9494 16.426 17.8638 16.347 16.969C16.3149 16.6051 16.1845 15.3741 16.0466 14.0708C15.9153 12.8303 15.7795 11.5475 15.7485 11.1955C15.7154 10.8215 15.988 10.4902 16.3561 10.4567C16.4714 10.4465 16.7772 10.4184 17.1317 11.2756C17.8883 13.105 18.5227 15.048 18.8723 16.6066C18.9549 16.9748 19.3179 17.2058 19.6832 17.1226C20.0485 17.0392 20.2776 16.6733 20.195 16.305C19.829 14.6731 19.1687 12.6482 18.3833 10.7494C18.1106 10.0899 17.7805 9.67766 17.4413 9.42861L15.8576 2.56259C15.7055 1.83801 15.9964 1.48232 16.3199 1.39099C16.6303 1.30342 17.0221 1.44329 17.1993 1.95259C17.3797 2.4919 17.8844 3.78253 18.523 5.41551C19.3691 7.5794 20.4221 10.2724 21.1904 12.4174C22.133 15.0489 22.246 15.7923 22.121 18.5361L21.9233 22.8739C21.9123 23.1156 22.0289 23.3452 22.2298 23.4776L24.8646 25.2131L19.4465 30.3076C15.0346 27.5531 15.6263 23.4306 16.1049 20.0988ZM28.3497 26.3656L20.8877 33.3822C20.5133 33.7341 19.9247 33.7135 19.5754 33.3361C19.4063 33.1532 19.3179 32.9149 19.3265 32.6651C19.3351 32.4152 19.4398 32.1837 19.6211 32.0132L27.0832 24.9966C27.2618 24.8286 27.4892 24.7455 27.7161 24.7455C27.9648 24.7455 28.2128 24.8454 28.3954 25.0427C28.7446 25.4201 28.7241 26.0136 28.3497 26.3656Z" fill="#AC5E1E"/>
</svg>
