<svg width="30" height="30" viewBox="0 0 30 30" fill="none" xmlns="http://www.w3.org/2000/svg">
<path fill-rule="evenodd" clip-rule="evenodd" d="M9.02022 0H4.46361C1.99634 0 0 2.01367 0 4.49328V9.08945C0 11.568 1.99676 13.5827 4.46361 13.5827H9.02022C11.4871 13.5827 13.4838 11.568 13.4838 9.08945V4.49328C13.4838 2.01367 11.4875 0 9.02022 0ZM4.46369 2.0931H9.0203C10.3276 2.0931 11.3909 3.16566 11.3909 4.49335V9.08952C11.3909 10.4163 10.327 11.4898 9.0203 11.4898H4.46369C3.15699 11.4898 2.0931 10.4163 2.0931 9.08952V4.49335C2.0931 3.16566 3.15643 2.0931 4.46369 2.0931ZM25.5378 0H20.9797C18.5124 0 16.5161 2.01367 16.5161 4.49328V9.08945C16.5161 11.568 18.5129 13.5827 20.9797 13.5827H25.5378C28.0035 13.5827 29.9999 11.5678 29.9999 9.08945V4.49328C29.9999 2.01396 28.0039 0 25.5378 0ZM20.9798 2.0931H25.5378C26.8438 2.0931 27.907 3.16581 27.907 4.49335V9.08952C27.907 10.4162 26.8433 11.4898 25.5378 11.4898H20.9798C19.6731 11.4898 18.6092 10.4163 18.6092 9.08952V4.49335C18.6092 3.16566 19.6725 2.0931 20.9798 2.0931ZM4.46361 16.4172H9.02022C11.4878 16.4172 13.4838 18.4312 13.4838 20.912V25.5067C13.4838 27.9863 11.4875 30 9.02022 30H4.46361C1.99634 30 0 27.9863 0 25.5067V20.912C0 18.4312 1.99605 16.4172 4.46361 16.4172ZM9.0203 18.5103H4.46369C3.15627 18.5103 2.0931 19.583 2.0931 20.912V25.5068C2.0931 26.8345 3.15643 27.907 4.46369 27.907H9.0203C10.3276 27.907 11.3909 26.8345 11.3909 25.5068V20.912C11.3909 19.583 10.3277 18.5103 9.0203 18.5103ZM25.5378 16.4172H20.9797C18.5122 16.4172 16.5161 18.4312 16.5161 20.912V25.5067C16.5161 27.9863 18.5124 30 20.9797 30H25.5378C28.0039 30 29.9999 27.986 29.9999 25.5067V20.912C29.9999 18.4315 28.0042 16.4172 25.5378 16.4172ZM20.9798 18.5103H25.5378C26.844 18.5103 27.907 19.5832 27.907 20.912V25.5068C27.907 26.8343 26.8438 27.907 25.5378 27.907H20.9798C19.6725 27.907 18.6092 26.8345 18.6092 25.5068V20.912C18.6092 19.583 19.6724 18.5103 20.9798 18.5103Z" fill="white"/>
</svg>
