<svg width="35" height="34" viewBox="0 0 35 34" fill="none" xmlns="http://www.w3.org/2000/svg">
<path fill-rule="evenodd" clip-rule="evenodd" d="M19.8849 0.00178556C19.2463 -0.0227648 18.6114 0.206659 18.133 0.639927C17.7521 0.984942 17.4934 1.43852 17.3927 1.935L17.3551 2.21502L17.3466 2.46353L18.1018 13.5549C18.1959 14.9686 19.4403 16.0449 20.8885 15.9631L32.1857 15.2264C32.8469 15.1787 33.4528 14.8791 33.8784 14.3935C34.2172 14.0068 34.4211 13.5255 34.462 13.0195L34.4658 12.6764L34.4495 12.4794C33.2806 5.44276 27.1702 0.207857 19.8849 0.00178556ZM19.8648 2.46334L20.2345 2.48086C25.986 2.82953 30.7797 6.93634 31.8909 12.467L31.9467 12.773L20.7321 13.5065C20.6753 13.5097 20.617 13.4592 20.6125 13.3928L19.8648 2.46334ZM11.5284 6.53704C12.7534 6.36957 13.9586 7.0117 14.4462 8.09302C14.5953 8.38924 14.6849 8.71067 14.7106 9.04574L15.3711 18.3762C15.38 18.504 15.4406 18.6231 15.5394 18.7072C15.6136 18.7702 15.7047 18.8096 15.8066 18.821L15.9118 18.823L25.3879 18.2522C26.1574 18.2069 26.9119 18.4747 27.4726 18.9922C28.0334 19.5096 28.3506 20.2307 28.3464 21.065C27.9251 27.2062 23.4142 32.3402 17.2703 33.671C11.1265 35.0018 4.82139 32.2106 1.79828 26.8342C0.989897 25.4482 0.445023 23.9322 0.193456 22.3973L0.112926 21.821C0.0430139 21.3895 0.00542339 20.9537 0 20.5352L0.00529327 20.1232C0.0227771 13.7113 4.52465 8.16684 10.8597 6.67138L11.2945 6.57572L11.5284 6.53704ZM11.9279 8.97282L11.7846 8.98911L11.3962 9.07686C6.3499 10.2931 2.7305 14.6375 2.52948 19.7557L2.52072 20.1724C2.50862 20.4893 2.5202 20.8066 2.55843 21.1442L2.60566 21.4893C2.77455 22.9415 3.24347 24.345 3.99349 25.6313C6.4877 30.0668 11.6733 32.3624 16.7262 31.2679C21.7792 30.1734 25.4891 25.951 25.8328 20.9804C25.833 20.9055 25.8015 20.8339 25.7458 20.7825C25.7087 20.7483 25.663 20.7251 25.6146 20.7147L25.5407 20.709L16.0803 21.2788C15.2819 21.3355 14.4933 21.0787 13.889 20.5651C13.2847 20.0516 12.9146 19.3237 12.8608 18.547L12.2009 9.22447C12.1997 9.20904 12.1955 9.19396 12.1665 9.13407C12.1235 9.03881 12.03 8.97822 11.9279 8.97282Z" fill="#AC5E1E"/>
</svg>
