<svg width="36" height="35" viewBox="0 0 36 35" fill="none" xmlns="http://www.w3.org/2000/svg">
<path d="M5.84021 8.76038C5.84021 8.41385 5.73745 8.0751 5.54493 7.78698C5.35241 7.49885 5.07878 7.27428 4.75863 7.14167C4.43848 7.00906 4.08619 6.97436 3.74632 7.04197C3.40645 7.10957 3.09426 7.27644 2.84923 7.52147C2.6042 7.7665 2.43733 8.07869 2.36973 8.41856C2.30212 8.75843 2.33682 9.11072 2.46943 9.43087C2.60204 9.75102 2.82661 10.0247 3.11473 10.2172C3.40286 10.4097 3.74161 10.5125 4.08814 10.5125C4.55265 10.5119 4.998 10.3272 5.32646 9.99871C5.65493 9.67024 5.83969 9.2249 5.84021 8.76038ZM3.50411 8.76038C3.50411 8.64487 3.53836 8.53195 3.60254 8.43591C3.66671 8.33987 3.75792 8.26501 3.86464 8.22081C3.97136 8.1766 4.08878 8.16504 4.20207 8.18757C4.31536 8.21011 4.41943 8.26573 4.5011 8.34741C4.58278 8.42909 4.6384 8.53315 4.66094 8.64644C4.68347 8.75973 4.67191 8.87716 4.6277 8.98387C4.5835 9.09059 4.50864 9.1818 4.4126 9.24598C4.31656 9.31015 4.20364 9.3444 4.08814 9.3444C3.9333 9.34423 3.78485 9.28264 3.67536 9.17315C3.56587 9.06366 3.50428 8.91522 3.50411 8.76038Z" fill="#AC5E1E"/>
<path d="M12.8486 2.9201C11.6935 2.9201 10.5644 3.26263 9.60395 3.90436C8.64352 4.5461 7.89496 5.45822 7.45293 6.52539C7.01089 7.59255 6.89524 8.76683 7.12058 9.89973C7.34593 11.0326 7.90216 12.0733 8.71893 12.89C9.53571 13.7068 10.5763 14.263 11.7092 14.4884C12.8421 14.7137 14.0164 14.5981 15.0836 14.156C16.1507 13.714 17.0629 12.9654 17.7046 12.005C18.3463 11.0446 18.6889 9.91545 18.6889 8.76035C18.6871 7.21196 18.0712 5.7275 16.9764 4.63262C15.8815 3.53774 14.397 2.92186 12.8486 2.9201ZM12.8486 13.4326C11.9245 13.4326 11.0212 13.1585 10.2529 12.6451C9.48454 12.1318 8.88569 11.4021 8.53206 10.5483C8.17844 9.6946 8.08591 8.75517 8.26619 7.84885C8.44647 6.94254 8.89145 6.11003 9.54487 5.45661C10.1983 4.80319 11.0308 4.35821 11.9371 4.17793C12.8434 3.99765 13.7829 4.09018 14.6366 4.44381C15.4903 4.79743 16.22 5.39628 16.7334 6.16462C17.2468 6.93296 17.5208 7.83628 17.5208 8.76035C17.5194 9.99907 17.0267 11.1867 16.1508 12.0626C15.2749 12.9385 14.0873 13.4312 12.8486 13.4326Z" fill="#AC5E1E"/>
<path d="M12.8485 7.0083C13.0034 7.00847 13.1518 7.07006 13.2613 7.17955C13.3708 7.28904 13.4324 7.43749 13.4325 7.59233C13.4325 7.74722 13.4941 7.89577 13.6036 8.00529C13.7131 8.11482 13.8617 8.17635 14.0166 8.17635C14.1715 8.17635 14.32 8.11482 14.4295 8.00529C14.5391 7.89577 14.6006 7.74722 14.6006 7.59233C14.6001 7.23015 14.4876 6.87698 14.2785 6.58128C14.0694 6.28558 13.7739 6.06182 13.4325 5.9407V5.84025C13.4325 5.68536 13.371 5.53681 13.2615 5.42728C13.152 5.31776 13.0034 5.25623 12.8485 5.25623C12.6936 5.25623 12.5451 5.31776 12.4355 5.42728C12.326 5.53681 12.2645 5.68536 12.2645 5.84025V5.9407C11.875 6.0786 11.5468 6.3497 11.3378 6.70614C11.1288 7.06257 11.0525 7.4814 11.1224 7.88863C11.1923 8.29586 11.4038 8.66529 11.7196 8.93167C12.0355 9.19805 12.4353 9.34423 12.8485 9.3444C12.964 9.3444 13.0769 9.37865 13.173 9.44283C13.269 9.507 13.3439 9.59821 13.3881 9.70493C13.4323 9.81165 13.4438 9.92907 13.4213 10.0424C13.3988 10.1557 13.3432 10.2597 13.2615 10.3414C13.1798 10.4231 13.0757 10.4787 12.9624 10.5012C12.8492 10.5238 12.7317 10.5122 12.625 10.468C12.5183 10.4238 12.4271 10.3489 12.3629 10.2529C12.2987 10.1569 12.2645 10.0439 12.2645 9.92843C12.2645 9.77353 12.203 9.62498 12.0934 9.51546C11.9839 9.40593 11.8354 9.3444 11.6805 9.3444C11.5256 9.3444 11.377 9.40593 11.2675 9.51546C11.158 9.62498 11.0964 9.77353 11.0964 9.92843C11.0969 10.2906 11.2094 10.6438 11.4185 10.9395C11.6277 11.2352 11.9232 11.4589 12.2645 11.58V11.6805C12.2645 11.8354 12.326 11.9839 12.4355 12.0935C12.5451 12.203 12.6936 12.2645 12.8485 12.2645C13.0034 12.2645 13.152 12.203 13.2615 12.0935C13.371 11.9839 13.4325 11.8354 13.4325 11.6805V11.58C13.822 11.4422 14.1503 11.171 14.3592 10.8146C14.5682 10.4582 14.6445 10.0394 14.5746 9.63213C14.5048 9.22489 14.2932 8.85546 13.9774 8.58908C13.6615 8.3227 13.2617 8.17652 12.8485 8.17635C12.6936 8.17635 12.5451 8.11482 12.4355 8.00529C12.326 7.89577 12.2645 7.74722 12.2645 7.59233C12.2645 7.43743 12.326 7.28888 12.4355 7.17936C12.5451 7.06983 12.6936 7.0083 12.8485 7.0083Z" fill="#AC5E1E"/>
<path d="M15.7686 15.7687H4.08811C3.93322 15.7687 3.78467 15.8302 3.67515 15.9397C3.56562 16.0493 3.50409 16.1978 3.50409 16.3527C3.50409 16.5076 3.56562 16.6561 3.67515 16.7657C3.78467 16.8752 3.93322 16.9367 4.08811 16.9367H15.7686C15.9235 16.9367 16.0721 16.8752 16.1816 16.7657C16.2911 16.6561 16.3526 16.5076 16.3526 16.3527C16.3526 16.1978 16.2911 16.0493 16.1816 15.9397C16.0721 15.8302 15.9235 15.7687 15.7686 15.7687Z" fill="#AC5E1E"/>
<path d="M15.7686 18.1048H4.08811C3.93322 18.1048 3.78467 18.1663 3.67515 18.2759C3.56562 18.3854 3.50409 18.5339 3.50409 18.6888C3.50409 18.8437 3.56562 18.9923 3.67515 19.1018C3.78467 19.2113 3.93322 19.2728 4.08811 19.2728H15.7686C15.9235 19.2728 16.0721 19.2113 16.1816 19.1018C16.2911 18.9923 16.3526 18.8437 16.3526 18.6888C16.3526 18.5339 16.2911 18.3854 16.1816 18.2759C16.0721 18.1663 15.9235 18.1048 15.7686 18.1048Z" fill="#AC5E1E"/>
<path d="M15.7686 20.4409H4.08811C3.93322 20.4409 3.78467 20.5024 3.67515 20.6119C3.56562 20.7214 3.50409 20.87 3.50409 21.0249C3.50409 21.1798 3.56562 21.3283 3.67515 21.4379C3.78467 21.5474 3.93322 21.6089 4.08811 21.6089H15.7686C15.9235 21.6089 16.0721 21.5474 16.1816 21.4379C16.2911 21.3283 16.3526 21.1798 16.3526 21.0249C16.3526 20.87 16.2911 20.7214 16.1816 20.6119C16.0721 20.5024 15.9235 20.4409 15.7686 20.4409Z" fill="#AC5E1E"/>
<path d="M15.7686 22.777H4.08811C3.93322 22.777 3.78467 22.8385 3.67515 22.948C3.56562 23.0576 3.50409 23.2061 3.50409 23.361C3.50409 23.5159 3.56562 23.6644 3.67515 23.774C3.78467 23.8835 3.93322 23.945 4.08811 23.945H15.7686C15.9235 23.945 16.0721 23.8835 16.1816 23.774C16.2911 23.6644 16.3526 23.5159 16.3526 23.361C16.3526 23.2061 16.2911 23.0576 16.1816 22.948C16.0721 22.8385 15.9235 22.777 15.7686 22.777Z" fill="#AC5E1E"/>
<path d="M15.7686 25.1131H4.08811C3.93322 25.1131 3.78467 25.1746 3.67515 25.2842C3.56562 25.3937 3.50409 25.5422 3.50409 25.6971C3.50409 25.852 3.56562 26.0006 3.67515 26.1101C3.78467 26.2196 3.93322 26.2811 4.08811 26.2811H15.7686C15.9235 26.2811 16.0721 26.2196 16.1816 26.1101C16.2911 26.0006 16.3526 25.852 16.3526 25.6971C16.3526 25.5422 16.2911 25.3937 16.1816 25.2842C16.0721 25.1746 15.9235 25.1131 15.7686 25.1131Z" fill="#AC5E1E"/>
<path d="M21.609 25.1131H19.2729C19.118 25.1131 18.9694 25.1746 18.8599 25.2842C18.7504 25.3937 18.6888 25.5422 18.6888 25.6971C18.6888 25.852 18.7504 26.0006 18.8599 26.1101C18.9694 26.2196 19.118 26.2811 19.2729 26.2811H21.609C21.7639 26.2811 21.9124 26.2196 22.0219 26.1101C22.1315 26.0006 22.193 25.852 22.193 25.6971C22.193 25.5422 22.1315 25.3937 22.0219 25.2842C21.9124 25.1746 21.7639 25.1131 21.609 25.1131Z" fill="#AC5E1E"/>
<path d="M15.7686 27.4492H4.08811C3.93322 27.4492 3.78467 27.5107 3.67515 27.6203C3.56562 27.7298 3.50409 27.8784 3.50409 28.0332C3.50409 28.1881 3.56562 28.3367 3.67515 28.4462C3.78467 28.5557 3.93322 28.6173 4.08811 28.6173H15.7686C15.9235 28.6173 16.0721 28.5557 16.1816 28.4462C16.2911 28.3367 16.3526 28.1881 16.3526 28.0332C16.3526 27.8784 16.2911 27.7298 16.1816 27.6203C16.0721 27.5107 15.9235 27.4492 15.7686 27.4492Z" fill="#AC5E1E"/>
<path d="M21.609 27.4492H19.2729C19.118 27.4492 18.9694 27.5107 18.8599 27.6203C18.7504 27.7298 18.6888 27.8784 18.6888 28.0332C18.6888 28.1881 18.7504 28.3367 18.8599 28.4462C18.9694 28.5557 19.118 28.6173 19.2729 28.6173H21.609C21.7639 28.6173 21.9124 28.5557 22.0219 28.4462C22.1315 28.3367 22.193 28.1881 22.193 28.0332C22.193 27.8784 22.1315 27.7298 22.0219 27.6203C21.9124 27.5107 21.7639 27.4492 21.609 27.4492Z" fill="#AC5E1E"/>
<path d="M25.6981 10.5142C24.543 10.5142 23.4139 10.8567 22.4534 11.4984C21.493 12.1402 20.7444 13.0523 20.3024 14.1194C19.8604 15.1866 19.7447 16.3609 19.9701 17.4938C20.1954 18.6267 20.7516 19.6673 21.5684 20.4841C22.3852 21.3009 23.4258 21.8571 24.5587 22.0824C25.6916 22.3078 26.8659 22.1921 27.9331 21.7501C29.0002 21.3081 29.9124 20.5595 30.5541 19.5991C31.1958 18.6387 31.5384 17.5095 31.5384 16.3544C31.5366 14.806 30.9207 13.3215 29.8259 12.2267C28.731 11.1318 27.2465 10.5159 25.6981 10.5142ZM21.0259 16.3544C21.0272 15.3191 21.3718 14.3134 22.0057 13.4948C22.6395 12.6762 23.527 12.0908 24.529 11.8304V20.8785C23.527 20.6181 22.6395 20.0327 22.0056 19.2141C21.3718 18.3955 21.0272 17.3898 21.0259 16.3544ZM25.6981 21.0266H25.6971V11.6822H25.6981C26.9372 11.6822 28.1256 12.1745 29.0018 13.0507C29.8781 13.9269 30.3703 15.1153 30.3703 16.3544C30.3703 17.5936 29.8781 18.7819 29.0018 19.6582C28.1256 20.5344 26.9372 21.0266 25.6981 21.0266Z" fill="#AC5E1E"/>
<path d="M34.8708 32.483L32.1706 26.8725C32.1515 26.7978 32.1178 26.7277 32.0714 26.6663L31.1077 24.6637C31.0744 24.5943 31.0276 24.5323 30.9702 24.4811C30.9128 24.4299 30.8458 24.3905 30.7732 24.3653C30.7005 24.34 30.6235 24.3294 30.5467 24.334C30.4699 24.3385 30.3948 24.3582 30.3256 24.392L29.8007 24.6475L29.3282 23.678C30.981 22.8595 32.3085 21.5061 33.0949 19.8378C33.8814 18.1696 34.0806 16.2844 33.6603 14.4885C33.2399 12.6927 32.2247 11.0918 30.7795 9.94583C29.3344 8.7999 27.5442 8.1763 25.6998 8.17635H25.6971V0.584025C25.6971 0.429132 25.6356 0.280583 25.526 0.171057C25.4165 0.061531 25.268 0 25.1131 0H0.584025C0.429132 0 0.280583 0.061531 0.171057 0.171057C0.061531 0.280583 0 0.429132 0 0.584025V31.5977C-2.33337e-07 31.6761 0.015791 31.7538 0.0464321 31.8259C0.0770731 31.8981 0.121937 31.9634 0.178347 32.0179L1.93042 33.7096C2.0393 33.8147 2.18475 33.8735 2.3361 33.8735C2.48745 33.8735 2.6329 33.8147 2.74178 33.7096L4.08818 32.4095L5.43457 33.7096C5.54345 33.8147 5.6889 33.8735 5.84025 33.8735C5.9916 33.8735 6.13705 33.8147 6.24593 33.7096L7.59233 32.4095L8.93872 33.7096C9.0476 33.8147 9.19305 33.8735 9.3444 33.8735C9.49576 33.8735 9.6412 33.8147 9.75008 33.7096L11.0965 32.4095L12.4429 33.7096C12.5518 33.8147 12.6972 33.8735 12.8486 33.8735C12.9999 33.8735 13.1453 33.8147 13.2542 33.7096L14.6006 32.4095L15.947 33.7096C16.0559 33.8147 16.2013 33.8735 16.3527 33.8735C16.5041 33.8735 16.6495 33.8147 16.7584 33.7096L18.1048 32.4095L19.4512 33.7096C19.5601 33.8147 19.7055 33.8735 19.8569 33.8735C20.0082 33.8735 20.1537 33.8147 20.2625 33.7096L21.6089 32.4095L22.9553 33.7096C23.0642 33.8147 23.2096 33.8735 23.361 33.8735C23.5124 33.8735 23.6578 33.8147 23.7667 33.7096L25.5188 32.0179C25.5752 31.9634 25.62 31.8981 25.6507 31.8259C25.6813 31.7538 25.6971 31.6761 25.6971 31.5977V24.5291H25.6998C26.5645 24.5296 27.4237 24.3925 28.2452 24.1229L28.7505 25.1595L28.2254 25.415C28.0867 25.4827 27.9804 25.6026 27.9298 25.7484C27.8791 25.8943 27.8883 26.0542 27.9553 26.1933L31.7199 34.0154C31.9234 34.4331 32.2845 34.7529 32.7238 34.9043C33.1631 35.0558 33.6446 35.0265 34.0623 34.823C34.4796 34.6197 34.7991 34.259 34.9508 33.8203C35.1024 33.3815 35.0737 32.9006 34.871 32.483H34.8708ZM24.5291 31.3498L23.361 32.4776L22.0146 31.1776C21.9057 31.0725 21.7603 31.0137 21.6089 31.0137C21.4576 31.0137 21.3121 31.0725 21.2032 31.1776L19.8569 32.4776L18.5105 31.1776C18.4016 31.0725 18.2561 31.0137 18.1048 31.0137C17.9534 31.0137 17.808 31.0725 17.6991 31.1776L16.3527 32.4776L15.0063 31.1776C14.8974 31.0725 14.752 31.0137 14.6006 31.0137C14.4493 31.0137 14.3038 31.0725 14.1949 31.1776L12.8486 32.4776L11.5022 31.1776C11.3933 31.0725 11.2478 31.0137 11.0965 31.0137C10.9451 31.0137 10.7997 31.0725 10.6908 31.1776L9.3444 32.4776L7.998 31.1776C7.88912 31.0725 7.74368 31.0137 7.59233 31.0137C7.44097 31.0137 7.29553 31.0725 7.18665 31.1776L5.84025 32.4776L4.49385 31.1776C4.38497 31.0725 4.23953 31.0137 4.08818 31.0137C3.93682 31.0137 3.79138 31.0725 3.6825 31.1776L2.3361 32.4776L1.16805 31.3498V1.16805H24.5291V8.26052C24.1282 8.31844 23.7322 8.40629 23.3445 8.52333C23.3065 8.2425 23.2009 7.97507 23.0368 7.744C22.8728 7.51293 22.6551 7.3251 22.4025 7.19664C22.1498 7.06818 21.8698 7.00291 21.5865 7.00644C21.3031 7.00997 21.0248 7.08218 20.7754 7.21689C20.5261 7.3516 20.3132 7.54478 20.1549 7.77987C19.9966 8.01495 19.8977 8.28492 19.8667 8.56662C19.8357 8.84832 19.8735 9.13333 19.9768 9.39722C20.0801 9.66111 20.2459 9.896 20.46 10.0817C19.5253 10.8611 18.7766 11.8396 18.2687 12.9456C17.7608 14.0516 17.5065 15.2572 17.5245 16.4741C17.5425 17.691 17.8323 18.8885 18.3726 19.979C18.9129 21.0696 19.6902 22.0255 20.6475 22.777H19.2728C19.1179 22.777 18.9694 22.8385 18.8599 22.948C18.7503 23.0576 18.6888 23.2061 18.6888 23.361C18.6888 23.5159 18.7503 23.6644 18.8599 23.774C18.9694 23.8835 19.1179 23.945 19.2728 23.945H21.6089C21.7043 23.9451 21.7982 23.9218 21.8825 23.8771C21.9668 23.8324 22.0388 23.7678 22.0923 23.6888C22.8596 24.0678 23.682 24.323 24.5291 24.4449V31.3498ZM21.5091 9.3352C21.3901 9.31421 21.2806 9.25676 21.1957 9.17081C21.1109 9.08486 21.0548 8.97465 21.0353 8.85544C21.0158 8.73623 21.0339 8.61391 21.087 8.50541C21.14 8.3969 21.2255 8.30758 21.3316 8.24979C21.4377 8.19201 21.5591 8.16862 21.679 8.18286C21.799 8.1971 21.9115 8.24827 22.0011 8.3293C22.0907 8.41032 22.1529 8.51718 22.1791 8.6351C22.2053 8.75301 22.1942 8.87616 22.1473 8.98749L22.1503 8.9888C21.931 9.09495 21.7172 9.21041 21.5091 9.3352ZM25.6998 23.361C24.3137 23.361 22.9587 22.95 21.8062 22.1799C20.6537 21.4098 19.7554 20.3153 19.225 19.0347C18.6945 17.7541 18.5557 16.3449 18.8262 14.9854C19.0966 13.626 19.7641 12.3772 20.7442 11.3971C21.7243 10.417 22.9731 9.74948 24.3326 9.47906C25.692 9.20865 27.1012 9.34743 28.3818 9.87788C29.6624 10.4083 30.7569 11.3066 31.527 12.4591C32.2971 13.6116 32.7081 14.9666 32.7081 16.3527C32.706 18.2108 31.9669 19.9921 30.6531 21.306C29.3392 22.6198 27.5579 23.3589 25.6998 23.361ZM29.2597 26.2109L29.7867 25.9541H29.7872H29.7878L30.3097 25.6997L30.8162 26.7523L29.7662 27.264L29.2597 26.2109ZM33.8468 33.4382C33.8092 33.5472 33.7403 33.6426 33.6486 33.7125C33.5569 33.7823 33.4466 33.8235 33.3315 33.8308C33.2165 33.838 33.1019 33.8111 33.0021 33.7533C32.9023 33.6956 32.8219 33.6096 32.7709 33.5062L30.2727 28.3157L31.3228 27.804L33.8195 32.992C33.8533 33.0609 33.8732 33.1358 33.8778 33.2124C33.8825 33.289 33.8719 33.3658 33.8467 33.4383L33.8468 33.4382Z" fill="#AC5E1E"/>
</svg>
