<svg width="34" height="36" viewBox="0 0 34 36" fill="none" xmlns="http://www.w3.org/2000/svg">
<path d="M31.0175 14.9121C29.6009 14.914 28.3803 15.9107 28.0953 17.298H20.8168C20.6789 16.6449 20.3251 16.0573 19.8123 15.6297L21.8277 11.9299H23.9198C24.2262 13.43 25.6184 14.4545 27.1418 14.3005C28.6651 14.1468 29.8245 12.8642 29.8245 11.3332C29.8245 9.80225 28.6651 8.51973 27.1418 8.366C25.6184 8.212 24.2262 9.23676 23.9198 10.7369H22.0701V6.80825L24.1066 4.77183H26.9023C27.2084 6.27198 28.601 7.29673 30.1243 7.14273C31.6477 6.98901 32.807 5.70649 32.807 4.17549C32.807 2.64422 31.6477 1.36198 30.1243 1.20798C28.601 1.05425 27.2084 2.07874 26.9023 3.57888H24.1066C23.7904 3.57969 23.4873 3.7053 23.2631 3.92838L22.7517 4.44008C22.3325 4.28498 21.906 4.15092 21.4735 4.03869V1.19296C21.4727 0.53436 20.9392 0.000819156 20.2806 0H15.5087C14.8501 0.000819156 14.3166 0.53436 14.3158 1.19296V4.03815C13.0191 4.36881 11.7759 4.88242 10.6239 5.56286L8.62294 3.56167C8.39986 3.33176 8.09268 3.20234 7.77212 3.20316H7.77102C7.45347 3.20179 7.14874 3.32931 6.92702 3.55676L3.56195 6.92129C3.3334 7.1441 3.20425 7.44937 3.20316 7.76829C3.20234 8.08749 3.32958 8.39358 3.55676 8.61775L5.56232 10.6236C4.88187 11.7759 4.36854 13.0191 4.03733 14.3158H1.19296C0.53436 14.3166 0.000819156 14.8501 0 15.5087V20.2806C0.000819156 20.9392 0.53436 21.4727 1.19296 21.4735H4.03733C4.36854 22.7702 4.88187 24.0134 5.56232 25.1657L3.56195 27.1661C3.3334 27.3889 3.20425 27.6942 3.20316 28.0131C3.20234 28.3323 3.32958 28.6384 3.55676 28.8623L6.92184 32.2271C7.14437 32.4573 7.45101 32.587 7.7713 32.5861H7.77239C8.09049 32.5875 8.39522 32.46 8.61775 32.2325L10.6239 30.2267C11.7759 30.9072 13.0191 31.4208 14.3158 31.7514V34.5963C14.3166 35.2549 14.8501 35.7885 15.5087 35.7893H20.2806C20.9392 35.7885 21.4727 35.2549 21.4735 34.5963V31.7506C21.906 31.6384 22.3325 31.5043 22.7517 31.3492L23.2631 31.8609C23.4873 32.084 23.7904 32.2096 24.1066 32.2104H26.9023C27.2084 33.7106 28.601 34.7351 30.1243 34.5813C31.6477 34.4273 32.807 33.1451 32.807 31.6138C32.807 30.0828 31.6477 28.8003 30.1243 28.6466C28.601 28.4926 27.2084 29.5173 26.9023 31.0175H24.1066L22.0701 28.9811V25.0524H23.9198C24.2262 26.5525 25.6184 27.5773 27.1418 27.4233C28.6651 27.2696 29.8245 25.9871 29.8245 24.4561C29.8245 22.9251 28.6651 21.6425 27.1418 21.4888C25.6184 21.3348 24.2262 22.3593 23.9198 23.8594H21.8277L19.8123 20.1596C20.3251 19.732 20.6789 19.1444 20.8168 18.4913H28.0953C28.4093 20.0288 29.8611 21.0604 31.4167 20.8502C32.972 20.6402 34.0986 19.2605 33.9932 17.6945C33.8878 16.1286 32.587 14.9121 31.0175 14.9121ZM29.8245 2.38592C30.8127 2.38592 31.6138 3.18705 31.6138 4.17549C31.6138 5.16366 30.8127 5.96479 29.8245 5.96479C28.8361 5.96479 28.0349 5.16366 28.0349 4.17549C28.036 3.18759 28.8366 2.38701 29.8245 2.38592ZM29.8245 29.8245C30.8127 29.8245 31.6138 30.6256 31.6138 31.6138C31.6138 32.6023 30.8127 33.4034 29.8245 33.4034C28.8361 33.4034 28.0349 32.6023 28.0349 31.6138C28.036 30.6259 28.8366 29.8256 29.8245 29.8245ZM17.8947 19.6842C16.9065 19.6842 16.1051 18.8828 16.1051 17.8947C16.1051 16.9065 16.9065 16.1051 17.8947 16.1051C18.8828 16.1051 19.6842 16.9065 19.6842 17.8947C19.6831 18.8825 18.8825 19.6831 17.8947 19.6842ZM26.842 9.54394C27.8301 9.54394 28.6316 10.3451 28.6316 11.3332C28.6316 12.3217 27.8301 13.1228 26.842 13.1228C25.8538 13.1228 25.0524 12.3217 25.0524 11.3332C25.0535 10.3453 25.8541 9.54503 26.842 9.54394ZM20.7478 30.6977C20.4747 30.7581 20.2806 31.0003 20.2806 31.2799V34.5963H15.5087V31.2799C15.5087 30.9994 15.3135 30.757 15.0399 30.6972C13.5537 30.3714 12.1368 29.7866 10.8538 28.969C10.6179 28.82 10.3101 28.8538 10.1124 29.051L7.77075 31.3891L4.40049 28.0153L6.73862 25.6771C6.93631 25.4795 6.97017 25.1712 6.82026 24.9355C6.00302 23.6525 5.41787 22.2353 5.09185 20.7497C5.03205 20.4758 4.78958 20.2808 4.50943 20.2806H1.19296V15.5087H4.50943C4.78958 15.5087 5.03205 15.3135 5.09185 15.0399C5.41787 13.554 6.00302 12.1368 6.82026 10.8538C6.97017 10.6181 6.93631 10.3098 6.73862 10.1124L4.40049 7.77048L7.7743 4.40021L10.1124 6.73835C10.3101 6.93603 10.6184 6.97017 10.854 6.82026C12.1371 6.00275 13.554 5.41787 15.0399 5.0924C15.3138 5.03232 15.5087 4.78958 15.5087 4.50943V1.19296H20.2806V4.50943C20.2806 4.78904 20.4747 5.03123 20.7478 5.09158C21.1166 5.17376 21.4713 5.2707 21.8143 5.37719L21.2267 5.96479C21.002 6.18815 20.8764 6.49178 20.8772 6.80825V7.58125C16.4909 6.31157 11.7816 7.95479 9.13764 11.6778C6.49342 15.4006 6.49342 20.3887 9.13764 24.1115C11.7816 27.8345 16.4909 29.4777 20.8772 28.208V28.9811C20.8764 29.2975 21.0022 29.6012 21.2267 29.8245L21.8143 30.4118C21.4713 30.5189 21.1166 30.6155 20.7478 30.6977ZM26.842 22.6665C27.8301 22.6665 28.6316 23.4676 28.6316 24.4561C28.6316 25.4442 27.8301 26.2454 26.842 26.2454C25.8538 26.2454 25.0524 25.4442 25.0524 24.4561C25.0535 23.4682 25.8541 22.6676 26.842 22.6665ZM20.8772 24.6079V26.9534C16.9392 28.2591 12.6087 26.8715 10.1635 23.5198C7.71805 20.1683 7.71805 15.621 10.1635 12.2695C12.6087 8.91784 16.9392 7.53019 20.8772 8.83592V11.1814L18.766 15.0571C18.4844 14.9654 18.1906 14.9165 17.8947 14.9121C16.2476 14.9121 14.9121 16.2476 14.9121 17.8947C14.9121 19.5417 16.2476 20.8772 17.8947 20.8772C18.1906 20.8728 18.4844 20.8239 18.766 20.7322L20.8772 24.6079ZM31.0175 19.6842C30.029 19.6842 29.2279 18.8828 29.2279 17.8947C29.2279 16.9065 30.029 16.1051 31.0175 16.1051C32.0056 16.1051 32.8068 16.9065 32.8068 17.8947C32.8057 18.8825 32.0054 19.6831 31.0175 19.6842Z" fill="#AC5E1E"/>
</svg>
