<svg width="35" height="35" viewBox="0 0 35 32" fill="#fff" xmlns="http://www.w3.org/2000/svg">
<path d="M32.0833 28H29.75V26.8333C29.75 26.2145 29.5042 25.621 29.0666 25.1834C28.629 24.7458 28.0355 24.5 27.4167 24.5H18.0833V22.8141C18.5409 23.0896 19.0659 23.233 19.6 23.2283C20.6203 23.1997 21.6075 22.8598 22.4292 22.2541C24.2433 20.9825 24.2083 17.9783 24.2083 17.85C24.206 17.7337 24.1693 17.6207 24.1028 17.5252C24.0364 17.4297 23.9432 17.356 23.835 17.3133C23.3183 17.131 22.7849 17.0001 22.2425 16.9225C22.3067 16.8816 22.3708 16.8525 22.4292 16.8116C24.2433 15.54 24.2083 12.53 24.2083 12.4016C24.2051 12.2863 24.1679 12.1744 24.1015 12.08C24.0351 11.9856 23.9425 11.9129 23.835 11.8708C22.658 11.4307 21.3829 11.3218 20.1483 11.5558C20.3274 10.9938 20.4179 10.4073 20.4167 9.81746C20.4167 7.60079 17.9317 5.90329 17.8267 5.83329C17.7293 5.77047 17.6159 5.73706 17.5 5.73706C17.3841 5.73706 17.2707 5.77047 17.1733 5.83329C17.0683 5.90329 14.5833 7.60079 14.5833 9.81746C14.5821 10.4073 14.6726 10.9938 14.8517 11.5558C13.6171 11.3223 12.3421 11.4313 11.165 11.8708C11.0575 11.9129 10.9649 11.9856 10.8985 12.08C10.8321 12.1744 10.7949 12.2863 10.7917 12.4016C10.7917 12.53 10.7567 15.54 12.5708 16.8116C12.6292 16.8525 12.6933 16.8816 12.7575 16.9225C12.2151 17.0001 11.6817 17.131 11.165 17.3133C11.0568 17.356 10.9636 17.4297 10.8972 17.5252C10.8307 17.6207 10.794 17.7337 10.7917 17.85C10.7917 17.9783 10.7567 20.9825 12.5708 22.2541C13.3925 22.8598 14.3797 23.1997 15.4 23.2283C15.9341 23.233 16.4591 23.0896 16.9167 22.8141V24.5H7.58333C6.96449 24.5 6.371 24.7458 5.93342 25.1834C5.49583 25.621 5.25 26.2145 5.25 26.8333V28H2.91667C2.14312 28 1.40125 28.3072 0.854272 28.8542C0.307291 29.4012 0 30.1431 0 30.9166V32.0833C0 32.8568 0.307291 33.5987 0.854272 34.1457C1.40125 34.6927 2.14312 35 2.91667 35H32.0833C32.8569 35 33.5987 34.6927 34.1457 34.1457C34.6927 33.5987 35 32.8568 35 32.0833V30.9166C35 30.1431 34.6927 29.4012 34.1457 28.8542C33.5987 28.3072 32.8569 28 32.0833 28ZM23.03 18.2816C22.9658 19.1508 22.68 20.6558 21.7583 21.3033C20.4633 22.2075 18.9117 22.3183 18.3692 21.5425C18.2513 21.3303 18.1861 21.0929 18.179 20.8503C18.1719 20.6077 18.2231 20.367 18.3283 20.1483C18.6261 19.4505 19.1207 18.8545 19.7517 18.4333C20.2202 18.1383 20.7678 17.9937 21.3208 18.0191C21.8999 18.0282 22.4749 18.1165 23.03 18.2816ZM18.0833 18.3808V17.3716C18.3147 17.5141 18.5665 17.6203 18.83 17.6866C18.5593 17.8934 18.3093 18.1259 18.0833 18.3808ZM19.7517 12.9908C20.7375 12.2966 22.3067 12.6291 23.03 12.8333C22.9658 13.7083 22.68 15.2133 21.7583 15.855C20.4633 16.765 18.9117 16.87 18.3692 16.0941C17.8267 15.3183 18.4567 13.895 19.7517 12.9908ZM17.5 7.05246C18.0833 7.52496 19.25 8.61579 19.25 9.81746C19.25 11.3983 18.4508 12.7341 17.5 12.7341C16.5492 12.7341 15.75 11.3983 15.75 9.81746C15.75 8.61579 16.9167 7.52496 17.5 7.05246ZM11.9758 12.8333C12.6992 12.6291 14.2625 12.3025 15.2483 12.9908C16.5433 13.895 17.1792 15.3183 16.6308 16.0941C16.0825 16.87 14.5367 16.765 13.2417 15.855C12.2558 15.1666 12.0283 13.5858 11.9758 12.8333ZM16.6308 21.5425C16.0883 22.3183 14.5367 22.2075 13.2417 21.3033C12.2558 20.6091 12.0283 19.0283 11.9758 18.2816C12.6992 18.0716 14.2625 17.745 15.2483 18.4333C15.8793 18.8545 16.3739 19.4505 16.6717 20.1483C16.7769 20.367 16.8281 20.6077 16.821 20.8503C16.8139 21.0929 16.7487 21.3303 16.6308 21.5425ZM16.17 17.6866C16.4335 17.6203 16.6853 17.5141 16.9167 17.3716V18.3808C16.6907 18.1259 16.4407 17.8934 16.17 17.6866ZM6.41667 26.8333C6.41759 26.5242 6.5408 26.2279 6.7594 26.0094C6.97799 25.7908 7.2742 25.6675 7.58333 25.6666H27.4167C27.7258 25.6675 28.022 25.7908 28.2406 26.0094C28.4592 26.2279 28.5824 26.5242 28.5833 26.8333V28H6.41667V26.8333ZM33.8333 32.0833C33.8319 32.547 33.6471 32.9913 33.3192 33.3192C32.9914 33.6471 32.547 33.8319 32.0833 33.8333H2.91667C2.45296 33.8319 2.00865 33.6471 1.68076 33.3192C1.35287 32.9913 1.16805 32.547 1.16667 32.0833V30.9166C1.16805 30.4529 1.35287 30.0086 1.68076 29.6807C2.00865 29.3528 2.45296 29.168 2.91667 29.1666H32.0833C32.547 29.168 32.9914 29.3528 33.3192 29.6807C33.6471 30.0086 33.8319 30.4529 33.8333 30.9166V32.0833Z" />
<path d="M3.50006 29.75C3.15394 29.75 2.8156 29.8526 2.52781 30.0449C2.24003 30.2372 2.01573 30.5105 1.88327 30.8303C1.75082 31.1501 1.71616 31.5019 1.78369 31.8414C1.85121 32.1809 2.01788 32.4927 2.26262 32.7374C2.50737 32.9822 2.81919 33.1489 3.15865 33.2164C3.49812 33.2839 3.84999 33.2492 4.16976 33.1168C4.48953 32.9843 4.76284 32.76 4.95513 32.4722C5.14743 32.1845 5.25006 31.8461 5.25006 31.5C5.25006 31.0359 5.06569 30.5908 4.7375 30.2626C4.40931 29.9344 3.96419 29.75 3.50006 29.75ZM3.50006 32.0833C3.38469 32.0833 3.27191 32.0491 3.17598 31.985C3.08005 31.9209 3.00528 31.8298 2.96113 31.7232C2.91698 31.6166 2.90543 31.4994 2.92794 31.3862C2.95044 31.273 3.006 31.1691 3.08758 31.0875C3.16916 31.0059 3.2731 30.9504 3.38626 30.9279C3.49941 30.9054 3.6167 30.9169 3.72329 30.9611C3.82988 31.0052 3.92099 31.08 3.98509 31.1759C4.04918 31.2718 4.08339 31.3846 4.08339 31.5C4.08339 31.6547 4.02194 31.8031 3.91254 31.9125C3.80314 32.0219 3.65477 32.0833 3.50006 32.0833Z" />
<path d="M8.16669 29.75C7.82057 29.75 7.48223 29.8526 7.19444 30.0449C6.90665 30.2372 6.68235 30.5105 6.5499 30.8303C6.41745 31.1501 6.38279 31.5019 6.45031 31.8414C6.51784 32.1809 6.68451 32.4927 6.92925 32.7374C7.17399 32.9822 7.48581 33.1489 7.82528 33.2164C8.16475 33.2839 8.51661 33.2492 8.83638 33.1168C9.15615 32.9843 9.42947 32.76 9.62176 32.4722C9.81405 32.1845 9.91669 31.8461 9.91669 31.5C9.91669 31.0359 9.73231 30.5908 9.40413 30.2626C9.07594 29.9344 8.63082 29.75 8.16669 29.75ZM8.16669 32.0833C8.05132 32.0833 7.93853 32.0491 7.84261 31.985C7.74668 31.9209 7.67191 31.8298 7.62776 31.7232C7.58361 31.6166 7.57206 31.4994 7.59456 31.3862C7.61707 31.273 7.67263 31.1691 7.75421 31.0875C7.83579 31.0059 7.93973 30.9504 8.05289 30.9279C8.16604 30.9054 8.28333 30.9169 8.38992 30.9611C8.49651 31.0052 8.58762 31.08 8.65171 31.1759C8.71581 31.2718 8.75002 31.3846 8.75002 31.5C8.75002 31.6547 8.68856 31.8031 8.57917 31.9125C8.46977 32.0219 8.3214 32.0833 8.16669 32.0833Z" />
<path d="M12.8333 29.75C12.4872 29.75 12.1489 29.8526 11.8611 30.0449C11.5733 30.2372 11.349 30.5105 11.2165 30.8303C11.0841 31.1501 11.0494 31.5019 11.1169 31.8414C11.1845 32.1809 11.3511 32.4927 11.5959 32.7374C11.8406 32.9822 12.1524 33.1489 12.4919 33.2164C12.8314 33.2839 13.1832 33.2492 13.503 33.1168C13.8228 32.9843 14.0961 32.76 14.2884 32.4722C14.4807 32.1845 14.5833 31.8461 14.5833 31.5C14.5833 31.0359 14.3989 30.5908 14.0708 30.2626C13.7426 29.9344 13.2974 29.75 12.8333 29.75ZM12.8333 32.0833C12.7179 32.0833 12.6052 32.0491 12.5092 31.985C12.4133 31.9209 12.3385 31.8298 12.2944 31.7232C12.2502 31.6166 12.2387 31.4994 12.2612 31.3862C12.2837 31.273 12.3393 31.1691 12.4208 31.0875C12.5024 31.0059 12.6064 30.9504 12.7195 30.9279C12.8327 30.9054 12.95 30.9169 13.0565 30.9611C13.1631 31.0052 13.2542 31.08 13.3183 31.1759C13.3824 31.2718 13.4166 31.3846 13.4166 31.5C13.4166 31.6547 13.3552 31.8031 13.2458 31.9125C13.1364 32.0219 12.988 32.0833 12.8333 32.0833Z" />
<path d="M22.1666 29.75C21.8205 29.75 21.4822 29.8526 21.1944 30.0449C20.9066 30.2372 20.6823 30.5105 20.5498 30.8303C20.4174 31.1501 20.3827 31.5019 20.4503 31.8414C20.5178 32.1809 20.6844 32.4927 20.9292 32.7374C21.1739 32.9822 21.4858 33.1489 21.8252 33.2164C22.1647 33.2839 22.5166 33.2492 22.8363 33.1168C23.1561 32.9843 23.4294 32.76 23.6217 32.4722C23.814 32.1845 23.9166 31.8461 23.9166 31.5C23.9166 31.0359 23.7323 30.5908 23.4041 30.2626C23.0759 29.9344 22.6308 29.75 22.1666 29.75ZM22.1666 32.0833C22.0513 32.0833 21.9385 32.0491 21.8425 31.985C21.7466 31.9209 21.6718 31.8298 21.6277 31.7232C21.5835 31.6166 21.572 31.4994 21.5945 31.3862C21.617 31.273 21.6726 31.1691 21.7541 31.0875C21.8357 31.0059 21.9397 30.9504 22.0528 30.9279C22.166 30.9054 22.2833 30.9169 22.3899 30.9611C22.4964 31.0052 22.5876 31.08 22.6517 31.1759C22.7157 31.2718 22.75 31.3846 22.75 31.5C22.75 31.6547 22.6885 31.8031 22.5791 31.9125C22.4697 32.0219 22.3213 32.0833 22.1666 32.0833Z" />
<path d="M26.8333 29.75C26.4872 29.75 26.1489 29.8526 25.8611 30.0449C25.5733 30.2372 25.349 30.5105 25.2165 30.8303C25.0841 31.1501 25.0494 31.5019 25.1169 31.8414C25.1845 32.1809 25.3511 32.4927 25.5959 32.7374C25.8406 32.9822 26.1524 33.1489 26.4919 33.2164C26.8314 33.2839 27.1832 33.2492 27.503 33.1168C27.8228 32.9843 28.0961 32.76 28.2884 32.4722C28.4807 32.1845 28.5833 31.8461 28.5833 31.5C28.5833 31.0359 28.3989 30.5908 28.0707 30.2626C27.7426 29.9344 27.2974 29.75 26.8333 29.75ZM26.8333 32.0833C26.7179 32.0833 26.6052 32.0491 26.5092 31.985C26.4133 31.9209 26.3385 31.8298 26.2944 31.7232C26.2502 31.6166 26.2387 31.4994 26.2612 31.3862C26.2837 31.273 26.3393 31.1691 26.4208 31.0875C26.5024 31.0059 26.6064 30.9504 26.7195 30.9279C26.8327 30.9054 26.95 30.9169 27.0565 30.9611C27.1631 31.0052 27.2542 31.08 27.3183 31.1759C27.3824 31.2718 27.4166 31.3846 27.4166 31.5C27.4166 31.6547 27.3552 31.8031 27.2458 31.9125C27.1364 32.0219 26.988 32.0833 26.8333 32.0833Z" />
<path d="M17.4999 29.75C17.1538 29.75 16.8155 29.8526 16.5277 30.0449C16.2399 30.2372 16.0156 30.5105 15.8832 30.8303C15.7507 31.1501 15.716 31.5019 15.7836 31.8414C15.8511 32.1809 16.0178 32.4927 16.2625 32.7374C16.5072 32.9822 16.8191 33.1489 17.1585 33.2164C17.498 33.2839 17.8499 33.2492 18.1696 33.1168C18.4894 32.9843 18.7627 32.76 18.955 32.4722C19.1473 32.1845 19.2499 31.8461 19.2499 31.5C19.2499 31.0359 19.0656 30.5908 18.7374 30.2626C18.4092 29.9344 17.9641 29.75 17.4999 29.75ZM17.4999 32.0833C17.3846 32.0833 17.2718 32.0491 17.1759 31.985C17.0799 31.9209 17.0052 31.8298 16.961 31.7232C16.9169 31.6166 16.9053 31.4994 16.9278 31.3862C16.9503 31.273 17.0059 31.1691 17.0875 31.0875C17.169 31.0059 17.273 30.9504 17.3861 30.9279C17.4993 30.9054 17.6166 30.9169 17.7232 30.9611C17.8298 31.0052 17.9209 31.08 17.985 31.1759C18.0491 31.2718 18.0833 31.3846 18.0833 31.5C18.0833 31.6547 18.0218 31.8031 17.9124 31.9125C17.803 32.0219 17.6546 32.0833 17.4999 32.0833Z" />
<path d="M31.5 29.75C31.1539 29.75 30.8155 29.8526 30.5278 30.0449C30.24 30.2372 30.0157 30.5105 29.8832 30.8303C29.7508 31.1501 29.7161 31.5019 29.7836 31.8414C29.8512 32.1809 30.0178 32.4927 30.2626 32.7374C30.5073 32.9822 30.8191 33.1489 31.1586 33.2164C31.4981 33.2839 31.8499 33.2492 32.1697 33.1168C32.4895 32.9843 32.7628 32.76 32.9551 32.4722C33.1474 32.1845 33.25 31.8461 33.25 31.5C33.25 31.0359 33.0656 30.5908 32.7374 30.2626C32.4092 29.9344 31.9641 29.75 31.5 29.75ZM31.5 32.0833C31.3846 32.0833 31.2718 32.0491 31.1759 31.985C31.08 31.9209 31.0052 31.8298 30.9611 31.7232C30.9169 31.6166 30.9054 31.4994 30.9279 31.3862C30.9504 31.273 31.0059 31.1691 31.0875 31.0875C31.1691 31.0059 31.273 30.9504 31.3862 30.9279C31.4994 30.9054 31.6166 30.9169 31.7232 30.9611C31.8298 31.0052 31.9209 31.08 31.985 31.1759C32.0491 31.2718 32.0833 31.3846 32.0833 31.5C32.0833 31.6547 32.0219 31.8031 31.9125 31.9125C31.8031 32.0219 31.6547 32.0833 31.5 32.0833Z" />
<path d="M34.4167 0H0.583333C0.428624 0 0.280251 0.0614581 0.170854 0.170854C0.0614581 0.280251 0 0.428624 0 0.583333V4.08333C0 4.23804 0.0614581 4.38642 0.170854 4.49581C0.280251 4.60521 0.428624 4.66667 0.583333 4.66667H1.75V7.60083C1.28954 7.94372 0.941338 8.41569 0.749612 8.95684C0.557885 9.49798 0.531276 10.0839 0.673163 10.6402C0.81505 11.1965 1.11903 11.6981 1.54652 12.0813C1.97401 12.4645 2.50573 12.712 3.07417 12.7925L4.90583 16.1408C5.05533 16.4188 5.27762 16.6509 5.5489 16.8122C5.82017 16.9735 6.13022 17.058 6.44583 17.0567C6.7372 17.0585 7.02424 16.9862 7.28 16.8467C7.68645 16.6227 7.98826 16.2475 8.12 15.8025C8.18585 15.5826 8.20739 15.3518 8.18336 15.1235C8.15932 14.8952 8.0902 14.6739 7.98 14.4725L6.14833 11.1183C6.32412 10.7421 6.41569 10.332 6.41667 9.91667C6.41613 9.46644 6.31036 9.02257 6.10779 8.62048C5.90523 8.2184 5.61149 7.86922 5.25 7.60083V4.66667H29.75V7.60083C29.3885 7.86922 29.0948 8.2184 28.8922 8.62048C28.6896 9.02257 28.5839 9.46644 28.5833 9.91667C28.5843 10.332 28.6759 10.7421 28.8517 11.1183L27.02 14.4725C26.7993 14.8789 26.7484 15.3561 26.8785 15.7999C27.0086 16.2436 27.309 16.6179 27.7142 16.8408C27.9708 16.9843 28.2602 17.0586 28.5542 17.0567C28.8691 17.058 29.1785 16.9741 29.4496 16.8139C29.7207 16.6537 29.9434 16.4231 30.0942 16.1467L31.9258 12.7925C32.4943 12.712 33.026 12.4645 33.4535 12.0813C33.881 11.6981 34.185 11.1965 34.3268 10.6402C34.4687 10.0839 34.4421 9.49798 34.2504 8.95684C34.0587 8.41569 33.7105 7.94372 33.25 7.60083V4.66667H34.4167C34.5714 4.66667 34.7197 4.60521 34.8291 4.49581C34.9385 4.38642 35 4.23804 35 4.08333V0.583333C35 0.428624 34.9385 0.280251 34.8291 0.170854C34.7197 0.0614581 34.5714 0 34.4167 0ZM1.75 9.91667C1.75 9.57055 1.85264 9.23221 2.04493 8.94442C2.23722 8.65663 2.51053 8.43233 2.8303 8.29988C3.15007 8.16742 3.50194 8.13277 3.84141 8.20029C4.18087 8.26782 4.49269 8.43449 4.73744 8.67923C4.98218 8.92397 5.14885 9.23579 5.21637 9.57526C5.2839 9.91472 5.24924 10.2666 5.11679 10.5864C4.98434 10.9061 4.76003 11.1794 4.47225 11.3717C4.18446 11.564 3.84612 11.6667 3.5 11.6667C3.0363 11.6653 2.59198 11.4805 2.26409 11.1526C1.9362 10.8247 1.75138 10.3804 1.75 9.91667ZM2.91667 7.05833V4.66667H4.08333V7.05833C3.89109 7.02102 3.69582 7.0015 3.5 7C3.30418 7.0015 3.10891 7.02102 2.91667 7.05833ZM5.3725 12.1333L6.95333 15.0325C6.99112 15.0992 7.01476 15.173 7.02279 15.2493C7.03081 15.3256 7.02306 15.4027 7 15.4758C6.97803 15.5503 6.94143 15.6195 6.89235 15.6796C6.84327 15.7397 6.78269 15.7894 6.71417 15.8258C6.57757 15.891 6.42153 15.9025 6.27682 15.8583C6.13212 15.814 6.00926 15.7171 5.9325 15.5867L4.34583 12.6933C4.7227 12.5787 5.0721 12.3881 5.3725 12.1333ZM29.0675 15.5925C28.9903 15.724 28.8656 15.8209 28.7191 15.8633C28.5726 15.9056 28.4154 15.8901 28.28 15.82C28.2128 15.7838 28.1535 15.7346 28.1054 15.6754C28.0572 15.6161 28.0213 15.5479 27.9996 15.4748C27.9779 15.4016 27.9709 15.3248 27.979 15.2489C27.9871 15.173 28.0101 15.0995 28.0467 15.0325L29.6275 12.1333C29.9279 12.3881 30.2773 12.5787 30.6542 12.6933L29.0675 15.5925ZM31.5 11.6667C31.1539 11.6667 30.8155 11.564 30.5278 11.3717C30.24 11.1794 30.0157 10.9061 29.8832 10.5864C29.7508 10.2666 29.7161 9.91472 29.7836 9.57526C29.8511 9.23579 30.0178 8.92397 30.2626 8.67923C30.5073 8.43449 30.8191 8.26782 31.1586 8.20029C31.4981 8.13277 31.8499 8.16742 32.1697 8.29988C32.4895 8.43233 32.7628 8.65663 32.9551 8.94442C33.1474 9.23221 33.25 9.57055 33.25 9.91667C33.2486 10.3804 33.0638 10.8247 32.7359 11.1526C32.408 11.4805 31.9637 11.6653 31.5 11.6667ZM30.9167 7.05833V4.66667H32.0833V7.05833C31.6983 6.98056 31.3017 6.98056 30.9167 7.05833ZM33.8333 3.5H1.16667V1.16667H33.8333V3.5Z" />
<path d="M12.25 26.25H13.4167V27.4167H12.25V26.25Z" />
<path d="M14.5834 26.25H15.75V27.4167H14.5834V26.25Z" />
<path d="M16.9166 26.25H18.0833V27.4167H16.9166V26.25Z" />
<path d="M19.2501 26.25H20.4167V27.4167H19.2501V26.25Z" />
<path d="M21.5833 26.25H22.75V27.4167H21.5833V26.25Z" />
<path d="M23.9167 26.25H25.0834V27.4167H23.9167V26.25Z" />
<path d="M26.25 26.25H27.4167V27.4167H26.25V26.25Z" />
<path d="M9.91669 26.25H11.0834V27.4167H9.91669V26.25Z" />
<path d="M7.58331 26.25H8.74998V27.4167H7.58331V26.25Z" />
<path d="M2.33331 1.75H3.49998V2.91667H2.33331V1.75Z" />
<path d="M31.5 1.75H32.6667V2.91667H31.5V1.75Z" />
<path d="M2.91663 9.33337H4.08329V10.5H2.91663V9.33337Z" />
<path d="M30.9167 9.33337H32.0834V10.5H30.9167V9.33337Z" />
<path d="M4.66669 1.75H30.3334V2.91667H4.66669V1.75Z" />
</svg>
