<svg width="20" height="24" viewBox="-6 0 32 32" fill="none" xmlns="http://www.w3.org/2000/svg">
<path fill-rule="evenodd" clip-rule="evenodd" d="M4.87001 6.42472C4.87001 3.83279 6.99167 1.72444 9.59997 1.72444C12.2083 1.72444 14.3299 3.83279 14.3299 6.42472C14.3299 9.01546 12.2083 11.1238 9.59997 11.1238C6.99167 11.1238 4.87001 9.01546 4.87001 6.42472ZM3.13481 6.42464C3.13481 9.96575 6.03534 12.8481 9.60002 12.8481C13.1647 12.8481 16.064 9.96575 16.064 6.42464C16.064 2.88233 13.1647 0 9.60002 0C6.03534 0 3.13481 2.88233 3.13481 6.42464ZM8.37313 23.9819C8.77525 23.9939 9.1846 23.9999 9.6 23.9999C13.7214 23.9999 19.2 23.5428 19.2 19.5961C19.2 15.167 11.974 15.167 9.6 15.167C5.47864 15.167 0 15.6242 0 19.5721C0 20.754 0.553057 22.3488 3.18792 23.2356C3.64317 23.3916 4.13343 23.1456 4.288 22.6956C4.44136 22.2456 4.19864 21.7572 3.7446 21.6048C1.94174 20.9976 1.73404 20.154 1.73404 19.5721C1.73404 17.7925 4.38098 16.8901 9.6 16.8901C14.819 16.8901 17.466 17.8009 17.466 19.5961C17.466 21.3744 14.819 22.2756 9.6 22.2756C9.20151 22.2756 8.80906 22.2708 8.42264 22.26C7.95894 22.2636 7.54596 22.6212 7.53268 23.0964C7.51819 23.5728 7.89494 23.9699 8.37313 23.9819Z" fill="#AC5E1E"/>
</svg>
